.
 
http://www.scenetime.com    -   SceneTime [ We been having it ] !!!


How come you press harder on a remote control when you know the battery is dead? so you better seed to get speed ;)

        Seed back for speed


...................................NFO:.................................................Another Fine Release Brought to you from;

===================================================================================================
BBBBBBBBBBBBBBBBB   BBBBBBBBBBBBBBBBB                     RRRRRRRRRRRRRRRRR           GGGGGGGGGGGGG
B::::::::::::::::B  B::::::::::::::::B                    R::::::::::::::::R       GGG::::::::::::G
B::::::BBBBBB:::::B B::::::BBBBBB:::::B                   R::::::RRRRRR:::::R    GG:::::::::::::::G
BB:::::B     B:::::BBB:::::B     B:::::B                  RR:::::R     R:::::R  G:::::GGGGGGGG::::G
  B::::B     B:::::B  B::::B     B:::::Bnnnn  nnnnnnnn      R::::R     R:::::R G:::::G       GGGGGG
  B::::B     B:::::B  B::::B     B:::::Bn:::nn::::::::nn    R::::R     R:::::RG:::::G              
  B::::BBBBBB:::::B   B::::BBBBBB:::::B n::::::::::::::nn   R::::RRRRRR:::::R G:::::G              
  B:::::::::::::BB    B:::::::::::::BB  nn:::::::::::::::n  R:::::::::::::RR  G:::::G    GGGGGGGGGG
  B::::BBBBBB:::::B   B::::BBBBBB:::::B   n:::::nnnn:::::n  R::::RRRRRR:::::R G:::::G    G::::::::G
  B::::B     B:::::B  B::::B     B:::::B  n::::n    n::::n  R::::R     R:::::RG:::::G    GGGGG::::G
  B::::B     B:::::B  B::::B     B:::::B  n::::n    n::::n  R::::R     R:::::RG:::::G        G::::G
  B::::B     B:::::B  B::::B     B:::::B  n::::n    n::::n  R::::R     R:::::R G:::::G       G::::G
BB:::::BBBBBB::::::BBB:::::BBBBBB::::::B  n::::n    n::::nRR:::::R     R:::::R  G:::::GGGGGGGG::::G
B:::::::::::::::::B B:::::::::::::::::B   n::::n    n::::nR::::::R     R:::::R   GG:::::::::::::::G
B::::::::::::::::B  B::::::::::::::::B    n::::n    n::::nR::::::R     R:::::R     GGG::::::GGG:::G
BBBBBBBBBBBBBBBBB   BBBBBBBBBBBBBBBBB     nnnnnn    nnnnnnRRRRRRRR     RRRRRRR        GGGGGG   GGGG
===================================================================================================
                        Harry Potter & The Deathly Hallows Part 2 TS x264 HQ AC3-BBnRG
===================================================================================================
                                                                                               
 ___     _                    ___       __    
| _ \___| |___ __ _ ___ ___  |_ _|_ _  / _|___
|   / -_) / -_) _` (_-</ -_)  | || ' \|  _/ _ \
|_|_\___|_\___\__,_/__/\___| |___|_||_|_| \___/
===================================================================================================

Audio

Format                           : AC-3
Format/Info                      : Audio Coding 3
Mode extension                   : CM (complete main)
Codec ID                         : ac-3
Duration                         : 1h 58mn
Bit rate mode                    : Constant
Bit rate                         : 128 Kbps
Channel(s)                       : 2 channels
Channel positions                : Front: L R
Sampling rate                    : 44.1 KHz
Bit depth                        : 16 bits
Stream size                      : 108 MiB (20%)
 
Video

Format                           : AVC
Format/Info                      : Advanced Video Codec
Format profile                   : High@L4.1
Format settings, CABAC           : Yes
Format settings, ReFrames        : 4 frames
Codec ID                         : avc1
Codec ID/Info                    : Advanced Video Coding
Duration                         : 1h 58mn
Bit rate mode                    : Variable
Bit rate                         : 520 Kbps
Width                            : 720 pixels
Height                           : 304 pixels
Display aspect ratio             : 2.35:1
Frame rate                       : 29.970 fps
Stream size                      : 440 MiB (80%)
Writing library                  : x264 core 115 r1995 c1e60b9
 
 ___     _                    ___                 _      _   _          
| _ \___| |___ __ _ ___ ___  |   \ ___ ___ __ _ _(_)_ __| |_(_)___ _ _  
|   / -_) / -_) _` (_-</ -_) | |) / -_|_-</ _| '_| | '_ \  _| / _ \ ' \
|_|_\___|_\___\__,_/__/\___| |___/\___/__/\__|_| |_| .__/\__|_\___/_||_|
                                                   |_|                  
===================================================================================================
 
iMDB: http://www.imdb.com/title/tt1201607/

Harry, Ron and Hermione search for Voldemort's remaining Horcruxes in their effort to destroy the Dark Lord.
 
  ___                     _  _     _          
 / __|_ _ ___ _  _ _ __  | \| |___| |_ ___ ___
| (_ | '_/ _ \ || | '_ \ | .` / _ \  _/ -_|_-<
 \___|_| \___/\_,_| .__/ |_|\_\___/\__\___/__/
                  |_|                        
===================================================================================================

ViDEO SOURCE: IMAGiNE, thanks!
AUDiO SOURCE: IMAGiNE, thanks!

BBnRG brining the internetz yet another release; Harry potter & the deathly hallows part 2 TS...

where to start, the source was nice but had issues! some scenes were too bright, dark scenes were there as well..
added a few filters so it would look nice, now this is the best release for
this size on the interwebz! encoded to a smaller file size without losing much quality..
it's not the same source as before it's a new one but it's not the best but more than watchable..
take it or leave it, your choice! :P

[IMG]http://lookpic.com/c1/i2/1817/PXnrVu0S.png[/IMG]

[IMG]http://lookpic.com/c1/i2/2014/lmjZ3N2m.png[/IMG]

[IMG]http://lookpic.com/c1/i2/2467/UcwSC3Ni.png[/IMG]

[IMG]http://lookpic.com/c1/i2/1932/J04Czhry.png[/IMG]

[IMG]http://lookpic.com/c1/i2/2642/hoaF332K.png[/IMG]

[IMG]http://lookpic.com/c1/i2/3100/YNEVkFI0.png[/IMG]

[IMG]http://lookpic.com/c1/i2/901/MQHZeeKM.png[/IMG]

[IMG]http://lookpic.com/c1/i2/3830/Tcob8yeS.png[/IMG]

[IMG]http://lookpic.com/c1/i2/220/SHgZ76Y3.png[/IMG]

  ___             _      
 / __|_ _ ___ ___| |_ ___
| (_ | '_/ -_) -_)  _|_ /
 \___|_| \___\___|\__/__|
===================================================================================================
 
IMAGiNE, NiCkkkDoN, Hive-CM8 & to all other p2p teams out there keeping the p2p scene alive, keep rocking! :P